<?xml version="1.0" encoding="utf-8"?>
<!-- Generator: Adobe Illustrator 21.1.0, SVG Export Plug-In . SVG Version: 6.00 Build 0)  -->
<svg version="1.1" id="Layer_1" xmlns="http://www.w3.org/2000/svg" xmlns:xlink="http://www.w3.org/1999/xlink" x="0px" y="0px"
	 viewBox="0 0 90 90" style="enable-background:new 0 0 90 90;" xml:space="preserve">
<style type="text/css">
	.st0{fill:#E1F1FB;}
	.st1{fill:none;stroke:#1E3D5C;stroke-width:2;stroke-linecap:round;stroke-linejoin:round;}
</style>
<title>offline_mode</title>
<path class="st0" d="M11.7,47.8h3c1.9,0,3.4,1.5,3.4,3.4v30c0,1.9-1.5,3.4-3.4,3.4h-3c-1.9,0-3.4-1.5-3.4-3.4v-30
	C8.3,49.3,9.8,47.8,11.7,47.8C11.7,47.8,11.7,47.8,11.7,47.8z"/>
<path class="st0" d="M30.5,37.8h3c1.9,0,3.4,1.5,3.4,3.4v40c0,1.9-1.5,3.4-3.4,3.4h-3c-1.9,0-3.4-1.5-3.4-3.4v-40
	C27.1,39.3,28.6,37.8,30.5,37.8L30.5,37.8z"/>
<path class="st0" d="M49.3,27.8h3c1.9,0,3.4,1.5,3.4,3.4v50c0,1.9-1.5,3.4-3.4,3.4h-3c-1.9,0-3.4-1.5-3.4-3.4v-50
	C45.9,29.3,47.4,27.8,49.3,27.8L49.3,27.8z"/>
<path class="st0" d="M68.1,17.8h3c1.9,0,3.4,1.5,3.4,3.4v0v60c0,1.9-1.5,3.4-3.4,3.4h-3c-1.9,0-3.4-1.5-3.4-3.4v-60
	C64.7,19.3,66.2,17.8,68.1,17.8C68.1,17.8,68.1,17.8,68.1,17.8z"/>
<path class="st1" d="M13.7,45h3c1.9,0,3.4,1.5,3.4,3.4v30c0,1.9-1.5,3.4-3.4,3.4h-3c-1.9,0-3.4-1.5-3.4-3.4v-30
	C10.3,46.5,11.8,45,13.7,45C13.7,45,13.7,45,13.7,45z"/>
<path class="st1" d="M32.5,35h3c1.9,0,3.4,1.5,3.4,3.4v40c0,1.9-1.5,3.4-3.4,3.4h-3c-1.9,0-3.4-1.5-3.4-3.4v-40
	C29.1,36.5,30.6,35,32.5,35C32.5,35,32.5,35,32.5,35z"/>
<path class="st1" d="M51.3,25h3c1.9,0,3.4,1.5,3.4,3.4v50c0,1.9-1.5,3.4-3.4,3.4h-3c-1.9,0-3.4-1.5-3.4-3.4v-50
	C47.9,26.5,49.4,25,51.3,25C51.3,25,51.3,25,51.3,25z"/>
<path class="st1" d="M70.1,15h3c1.9,0,3.4,1.5,3.4,3.4v0v60c0,1.9-1.5,3.4-3.4,3.4h-3c-1.9,0-3.4-1.5-3.4-3.4v-60
	C66.7,16.5,68.2,15,70.1,15C70.1,15,70.1,15,70.1,15z"/>
<g>
	<line class="st1" x1="10.5" y1="27.8" x2="19.9" y2="37.1"/>
	<line class="st1" x1="19.9" y1="27.8" x2="10.5" y2="37.1"/>
</g>
</svg>
