<svg id="Layer_1" data-name="Layer 1" xmlns="http://www.w3.org/2000/svg" viewBox="0 0 90 90"><defs><style>.cls-1{fill:#f2f2f2;}.cls-2,.cls-3{fill:none;stroke-linecap:round;stroke-miterlimit:10;stroke-width:2px;}.cls-2{stroke:#fff;}.cls-3{stroke:#cccaca;}</style></defs><title>Icons_Navvis</title><path class="cls-1" d="M56.85,11H20.16a3.42,3.42,0,0,0-3.36,3.49l.88,42.75,39.9-44.95Z"/><path class="cls-1" d="M65.88,12.32,16.8,66.55v8.38a4,4,0,0,0,4,4H66.17a2.25,2.25,0,0,0,2.25-2.25V16A4,4,0,0,0,65.88,12.32Z"/><line class="cls-2" x1="26.92" y1="31.18" x2="60.18" y2="31.18"/><line class="cls-2" x1="26.92" y1="41.79" x2="60.18" y2="41.79"/><line class="cls-2" x1="36.93" y1="52.41" x2="60.18" y2="52.41"/><line class="cls-2" x1="46.18" y1="63.03" x2="60.18" y2="63.03"/><line class="cls-3" x1="30.08" y1="11.02" x2="56.29" y2="11.02"/><path class="cls-3" d="M16.8,29.52V15a4,4,0,0,1,4-4h12"/><line class="cls-3" x1="16.8" y1="55.52" x2="16.8" y2="27.68"/><path class="cls-3" d="M67.06,11h1.07a4,4,0,0,1,4,4V79a4,4,0,0,1-4,4H20.8a4,4,0,0,1-4-4V66.55"/><line class="cls-3" x1="73.77" y1="3.61" x2="9.11" y2="75.04"/></svg>